# xmcd CD database file
#
# Track frame offsets:
#	150
#	10025
#	22710
#	36380
#	50640
#	61170
#	74485
#	85262
#	97687
#	109615
#
# Disc length: 1626 seconds
#
# Revision: 0
# Processed by: cddbd v1.5.1PL2 Copyright (c) Steve Scherf et al.
# Submitted via: CDex 1.51
#
DISCID=7106580a
DTITLE=Roy Orbison - The Fastest Guitar Alive
DYEAR=1968
DGENRE=Country
TTITLE0=Whirlwind
TTITLE1=Medicine Man
TTITLE2=River
TTITLE3=The Fastest Guitar Alive
TTITLE4=Rollin' On
TTITLE5=Pistolero
TTITLE6=Good Time Party
TTITLE7=Heading South
TTITLE8=Best Friend
TTITLE9=There Won't Be Many Coming Home
EXTD=YEAR: 1968
EXTT0=
EXTT1=
EXTT2=
EXTT3=
EXTT4=
EXTT5=
EXTT6=
EXTT7=
EXTT8=
EXTT9=
PLAYORDER=
